<svg width="23" height="23" viewBox="0 0 23 23" fill="none" xmlns="http://www.w3.org/2000/svg">
<g clip-path="url(#clip0_3121_486)">
<path d="M22.9923 11.4775C22.9923 12.2861 22.3933 12.9195 21.7145 12.9195H20.4367L20.4647 20.116C20.4647 20.2373 20.4567 20.3586 20.4447 20.4799V21.2076C20.4447 22.2004 19.7299 23.0045 18.8475 23.0045H18.2086C18.1647 23.0045 18.1207 23.0045 18.0768 23C18.0209 23.0045 17.965 23.0045 17.9091 23.0045L16.6114 23H15.653C14.7706 23 14.0558 22.1959 14.0558 21.2031V20.125V17.25C14.0558 16.4549 13.4848 15.8125 12.778 15.8125H10.2225C9.5157 15.8125 8.94469 16.4549 8.94469 17.25V20.125V21.2031C8.94469 22.1959 8.22994 23 7.34747 23H6.38914H5.11535C5.05546 23 4.99556 22.9955 4.93567 22.991C4.88775 22.9955 4.83983 23 4.79192 23H4.15303C3.27056 23 2.5558 22.1959 2.5558 21.2031V16.1719C2.5558 16.1314 2.5558 16.0865 2.5598 16.0461V12.915H1.28202C0.56327 12.915 0.00424194 12.2861 0.00424194 11.473C0.00424194 11.0687 0.124034 10.7094 0.403547 10.3949L10.6377 0.359375C10.9173 0.0449219 11.2367 0 11.5162 0C11.7957 0 12.1152 0.0898438 12.3548 0.314453L22.553 10.3994C22.8725 10.7139 23.0322 11.0732 22.9923 11.4775Z" fill="white"/>
</g>
<defs>
<clipPath id="clip0_3121_486">
<rect width="23" height="23" fill="white"/>
</clipPath>
</defs>
</svg>
