<svg width="34" height="34" viewBox="0 0 34 34" fill="none" xmlns="http://www.w3.org/2000/svg">
<path d="M34 17.0633C34 7.6385 26.3898 0 17 0C7.61016 0 0 7.6385 0 17.0633C0 25.0618 5.4918 31.7804 12.8961 33.6267V22.2756H9.38984V17.0633H12.8961V14.8171C12.8961 9.01157 15.5125 6.31876 21.1969 6.31876C22.2727 6.31876 24.132 6.53205 24.8957 6.74534V11.4644C24.4973 11.4244 23.8 11.3978 22.9301 11.3978C20.141 11.3978 19.0652 12.4576 19.0652 15.2103V17.0633H24.6168L23.6605 22.2756H19.0586V34C27.4789 32.9802 34 25.7883 34 17.0633Z" fill="white"/>
</svg>
