<svg width="50" height="50" viewBox="0 0 50 50" fill="none" xmlns="http://www.w3.org/2000/svg">
<g clip-path="url(#clip0_3107_1077)">
<path d="M24.6428 6.25134C22.0796 6.25134 19.9999 8.35136 19.9999 10.9398V27.0074C19.9999 28.6971 19.3132 30.1232 18.52 31.1586C17.5044 32.4869 16.9047 34.1376 16.9047 35.9446C16.9047 40.2619 20.3675 43.7587 24.6428 43.7587C28.9181 43.7587 32.3809 40.2619 32.3809 35.9446C32.3809 34.1376 31.7812 32.4869 30.7656 31.1683C29.9724 30.133 29.2857 28.7069 29.2857 27.0171V10.9398C29.2857 8.35136 27.206 6.25134 24.6428 6.25134ZM13.8095 10.9398C13.8095 4.90342 18.6555 0.00012207 24.6428 0.00012207C30.6302 0.00012207 35.4761 4.89366 35.4761 10.9398V26.9976C35.4761 27.0074 35.4858 27.0269 35.4955 27.0562C35.5148 27.1148 35.5729 27.2125 35.6599 27.3297C37.488 29.713 38.5714 32.7018 38.5714 35.9349C38.5714 43.7001 32.3325 50.0001 24.6428 50.0001C16.9531 50.0001 10.7142 43.7098 10.7142 35.9446C10.7142 32.7018 11.7976 29.713 13.6257 27.3394C13.7127 27.2222 13.7708 27.1246 13.7901 27.066C13.7998 27.0367 13.8095 27.0171 13.8095 27.0074V10.9398Z" fill="white"/>
<path d="M24.6429 40.6331C27.2061 40.6331 29.2857 38.533 29.2857 35.9446C29.2857 33.9032 27.9896 32.1646 26.1905 31.5199V14.0654C26.1905 13.2058 25.494 12.5026 24.6429 12.5026C23.7917 12.5026 23.0952 13.2058 23.0952 14.0654V31.5199C21.2961 32.1646 20 33.9032 20 35.9446C20 38.533 22.0796 40.6331 24.6429 40.6331Z" fill="#A82424"/>
</g>
<defs>
<clipPath id="clip0_3107_1077">
<rect width="50" height="50" fill="white"/>
</clipPath>
</defs>
</svg>
