<svg width="51" height="50" viewBox="0 0 51 50" fill="none" xmlns="http://www.w3.org/2000/svg">
<g clip-path="url(#clip0_3107_1016)">
<path d="M45.6459 25.0001C45.6459 30.3873 43.5058 35.5539 39.6965 39.3632C35.8871 43.1726 30.7206 45.3126 25.3334 45.3126C19.9462 45.3126 14.7796 43.1726 10.9703 39.3632C7.16094 35.5539 5.02087 30.3873 5.02087 25.0001C5.02087 19.6129 7.16094 14.4463 10.9703 10.637C14.7796 6.82768 19.9462 4.68762 25.3334 4.68762C30.7206 4.68762 35.8871 6.82768 39.6965 10.637C43.5058 14.4463 45.6459 19.6129 45.6459 25.0001ZM0.333374 25.0001C0.333374 31.6305 2.9673 37.9894 7.6557 42.6778C12.3441 47.3662 18.703 50.0001 25.3334 50.0001C31.9638 50.0001 38.3226 47.3662 43.011 42.6778C47.6995 37.9894 50.3334 31.6305 50.3334 25.0001C50.3334 18.3697 47.6995 12.0109 43.011 7.32245C38.3226 2.63404 31.9638 0.00012207 25.3334 0.00012207C18.703 0.00012207 12.3441 2.63404 7.6557 7.32245C2.9673 12.0109 0.333374 18.3697 0.333374 25.0001Z" fill="white"/>
<path d="M22.9896 25.0001V11.7189C22.9896 10.42 24.0345 9.37512 25.3334 9.37512C26.6322 9.37512 27.6771 10.42 27.6771 11.7189V23.7501L36.0072 29.297C37.0912 30.0197 37.3842 31.465 36.6615 32.5489C35.9388 33.6329 34.4838 33.9259 33.4095 33.2032L24.0345 26.9532C23.3802 26.5138 22.9896 25.7814 22.9896 25.0001Z" fill="#A82424"/>
</g>
<defs>
<clipPath id="clip0_3107_1016">
<rect width="50" height="50" fill="white" transform="translate(0.333374 0.00012207)"/>
</clipPath>
</defs>
</svg>
