<svg width="24" height="24" viewBox="0 0 24 24" fill="none" xmlns="http://www.w3.org/2000/svg">
<path d="M6.56668 13.3941L6.95693 13.2638H20.1776L23.4998 3.03218H4.91623L4.06842 2.99817" fill="white"/>
<path d="M0.5 0.501099H3.4686L7.76899 18.3969H18.396" stroke="white" stroke-linecap="round" stroke-linejoin="round"/>
<path d="M8.06438 23.5C9.47566 23.5 10.6197 22.3552 10.6197 20.943C10.6197 19.5308 9.47566 18.3859 8.06438 18.3859C6.6531 18.3859 5.50903 19.5308 5.50903 20.943C5.50903 22.3552 6.6531 23.5 8.06438 23.5Z" fill="white" stroke="white"/>
<path d="M18.1831 23.5C19.5944 23.5 20.7384 22.3552 20.7384 20.943C20.7384 19.5308 19.5944 18.3859 18.1831 18.3859C16.7718 18.3859 15.6277 19.5308 15.6277 20.943C15.6277 22.3552 16.7718 23.5 18.1831 23.5Z" fill="white" stroke="white"/>
<path d="M12.5098 8.14993H21.7087M18.3959 18.3968H7.76889L6.56662 13.3952L6.95687 13.2639H20.1775L23.4998 3.03238H4.91617L4.06836 2.99836L3.46851 0.500122" stroke="white" stroke-linecap="round" stroke-linejoin="round"/>
</svg>
