<svg width="51" height="50" viewBox="0 0 51 50" fill="none" xmlns="http://www.w3.org/2000/svg">
<g clip-path="url(#clip0_3107_1106)">
<path d="M10.4285 1.56262C10.4285 0.761841 9.83848 0.0977783 9.04533 0.0098877C8.25217 -0.0780029 7.54607 0.449341 7.37197 1.22083L4.44116 14.5314C4.30575 15.1466 4.23804 15.7716 4.23804 16.3966C4.23804 20.879 7.63313 24.5607 11.9761 24.9611V46.8751C11.9761 48.6036 13.3593 50.0001 15.0714 50.0001C16.7834 50.0001 18.1666 48.6036 18.1666 46.8751V24.9611C22.5096 24.5607 25.9047 20.879 25.9047 16.3966C25.9047 15.7716 25.837 15.1466 25.7016 14.5314L22.7708 1.22083C22.5967 0.439575 21.8712 -0.0780029 21.0877 0.0098877C20.3043 0.0977783 19.7142 0.761841 19.7142 1.56262V14.6681C19.7142 15.1954 19.2886 15.6251 18.7663 15.6251C18.273 15.6251 17.8668 15.2443 17.8184 14.7462L16.6093 1.4259C16.5416 0.615356 15.8742 0.00012207 15.0714 0.00012207C14.2685 0.00012207 13.6011 0.615356 13.5334 1.4259L12.334 14.7462C12.2857 15.2443 11.8794 15.6251 11.3861 15.6251C10.8638 15.6251 10.4382 15.1954 10.4382 14.6681L10.4285 1.56262ZM15.1004 16.4064H15.0714H15.0424L15.0714 16.338L15.1004 16.4064Z" fill="white"/>
<path d="M32.0952 17.1876C32.0952 3.12512 42.9285 0.00012207 44.4762 0.00012207C46.1882 0.00012207 47.5714 1.39661 47.5714 3.12512V23.4376V34.3751V46.8751C47.5714 48.6036 46.1882 50.0001 44.4762 50.0001C42.7641 50.0001 41.3809 48.6036 41.3809 46.8751V34.3751H38.2857C34.8713 34.3751 32.0952 31.5724 32.0952 28.1251V17.1876Z" fill="#A82424"/>
</g>
<defs>
<clipPath id="clip0_3107_1106">
<rect width="50" height="50" fill="white" transform="translate(0.666626 0.00012207)"/>
</clipPath>
</defs>
</svg>
