<svg width="90" height="73" viewBox="0 0 90 73" fill="none" xmlns="http://www.w3.org/2000/svg">
<path d="M23.3766 27.6694C23.3766 15.6385 33.0578 5.8871 45.0006 5.8871C56.9422 5.8871 66.6233 15.6385 66.6233 27.6694C66.6233 39.699 56.9422 49.4516 45.0006 49.4516C33.0578 49.4516 23.3766 39.699 23.3766 27.6694Z" fill="#ADADAD" fill-opacity="0.678431"/>
<path d="M45.614 8.24193C45.614 8.24193 27.6961 19.2582 39.5106 38.0251C39.5106 38.0251 32.6798 34.5142 31.175 24.2786C31.1299 23.8556 30.6394 23.3517 30.2851 24.3802C26.7376 34.7172 32.0376 47.701 46.5027 47.075C61.0898 46.4429 64.3992 29.3571 56.887 18.805C56.6157 18.3723 56.2235 18.2599 56.4486 19.0926C57.9072 24.4865 55.4782 30.8147 54.6108 32.2468C58.9748 17.6351 46.5773 8.36158 45.614 8.24193Z" fill="white"/>
<path d="M83.0264 72.6941V59.1838H89.9258V60.1979H84.1462V65.1925H89.5346V66.2066H84.1462V71.6799H90V72.6941H83.0264ZM76.1927 72.9243C74.4962 72.9243 73.0044 72.1974 72.3512 70.5129C72.1286 69.9383 72.0724 69.3453 72.0353 68.7327H73.1539C73.2089 70.6283 74.3467 71.8905 76.2489 71.8905C77.7779 71.8905 79.1955 70.9144 79.1955 69.2299C79.1955 68.3509 78.8031 67.7382 78.1511 67.2213C77.2933 66.5325 76.0623 66.0918 75.0741 65.5945C74.6266 65.3846 74.1792 65.1734 73.7688 64.8665C72.9302 64.2551 72.4636 63.3748 72.4636 62.3029C72.4636 60.1212 74.3287 58.9536 76.2669 58.9536C77.9274 58.9536 79.381 59.7774 79.8476 61.4803C79.9409 61.8253 79.96 62.1691 79.978 62.5141H78.8773C78.8403 62.1114 78.7661 61.6903 78.5794 61.3269C78.1128 60.3901 77.1617 59.9874 76.1747 59.9874C74.8874 59.9874 73.6193 60.81 73.6193 62.2464C73.6193 65.2692 80.3704 64.6381 80.3704 69.1538C80.3704 71.6032 78.4119 72.9243 76.1927 72.9243ZM65.8794 72.9243C64.183 72.9243 62.6911 72.1974 62.0379 70.5129C61.8142 69.9383 61.758 69.3453 61.7209 68.7327H62.8395C62.8957 70.6283 64.0335 71.8905 65.9357 71.8905C67.4646 71.8905 68.8823 70.9144 68.8823 69.2299C68.8823 68.3509 68.4899 67.7382 67.8379 67.2213C66.9789 66.5325 65.749 66.0918 64.7608 65.5945C64.3134 65.3846 63.866 65.1734 63.4556 64.8665C62.6158 64.2551 62.1504 63.3748 62.1504 62.3029C62.1504 60.1212 64.0155 58.9536 65.9536 58.9536C67.6142 58.9536 69.0677 59.7774 69.5343 61.4803C69.6276 61.8253 69.6456 62.1691 69.6647 62.5141H68.5641C68.527 62.1114 68.4528 61.6903 68.2662 61.3269C67.7996 60.3901 66.8485 59.9874 65.8615 59.9874C64.5742 59.9874 63.3061 60.81 63.3061 62.2464C63.3061 65.2692 70.0559 64.6381 70.0559 69.1538C70.0559 71.6032 68.0987 72.9243 65.8794 72.9243ZM57.5803 59.1832H58.736V72.6934H57.5803V59.1832ZM54.0733 69.6324C53.7 71.9479 51.799 72.924 49.673 72.924C47.8641 72.924 45.999 72.1775 45.402 70.2635C45.2154 69.6901 45.1975 69.0774 45.1975 68.4648V59.1842H46.3161C46.3161 62.2069 46.2969 65.2112 46.2969 68.2364C46.2969 69.0013 46.3723 69.7859 46.7444 70.4746C47.3413 71.5452 48.5353 71.8902 49.673 71.8902C50.3251 71.8902 51.0716 71.7183 51.6494 71.4126C53.1975 70.5888 53.0109 68.8675 53.0109 67.3549V59.1842H54.1486V68.4267C54.1486 68.8294 54.1295 69.2309 54.0733 69.6324ZM38.5382 72.9243C36.8418 72.9243 35.3499 72.1974 34.6967 70.5129C34.473 69.9383 34.4168 69.3453 34.3797 68.7327H35.4983C35.5544 70.6283 36.6922 71.8905 38.5945 71.8905C40.1234 71.8905 41.5411 70.9144 41.5411 69.2299C41.5411 68.3509 41.1487 67.7382 40.4967 67.2213C39.6389 66.5325 38.4078 66.0918 37.4196 65.5945C36.9722 65.3846 36.5235 65.1734 36.1144 64.8665C35.2745 64.2551 34.8092 63.3748 34.8092 62.3029C34.8092 60.1212 36.6731 58.9536 38.6124 58.9536C40.2718 58.9536 41.7265 59.7774 42.1931 61.4803C42.2864 61.8253 42.3056 62.1691 42.3235 62.5141H41.2241C41.1858 62.1114 41.1116 61.6903 40.925 61.3269C40.4584 60.3901 39.5073 59.9874 38.5203 59.9874C37.233 59.9874 35.9648 60.81 35.9648 62.2464C35.9648 65.2692 42.7159 64.6381 42.7159 69.1538C42.7159 71.6032 40.7575 72.9243 38.5382 72.9243ZM26.1032 61.6469C23.7907 61.6469 23.0812 63.9637 23.0812 65.9355C23.0812 67.965 23.7715 70.224 26.1403 70.224C28.4349 70.224 29.1623 67.9834 29.1623 65.9932C29.1623 63.9441 28.5091 61.6469 26.1032 61.6469ZM26.1212 73C22.0177 73 19.4623 70.0706 19.4623 65.9355C19.4623 61.7623 21.9986 58.871 26.1404 58.871C30.2439 58.871 32.8005 61.82 32.8005 65.9355C32.8005 70.0706 30.226 73 26.1212 73ZM13.7922 59.1783H17.282V72.6934H13.7922V59.1783ZM5.84901 66.95H3.41442V70.0513H5.97942C7.06212 70.0513 8.06946 69.861 8.06946 68.5203C8.06946 67.0838 6.96881 66.95 5.84901 66.95ZM5.68032 61.8008H3.41442V64.4417H5.43986C6.40891 64.4417 7.43539 64.3459 7.43539 63.0825C7.43539 61.9726 6.5764 61.8008 5.68032 61.8008ZM9.7659 71.947C8.53604 72.6554 6.80012 72.6934 5.41952 72.6934H0V59.1783H5.40157C7.06212 59.1783 9.13302 59.2164 10.2504 60.7093C10.6799 61.2642 10.8677 61.9923 10.8677 62.6995C10.8677 64.0598 10.1583 64.9782 8.90811 65.4177C10.5316 65.7824 11.6322 66.9316 11.6322 68.6922C11.6322 70.0513 10.9228 71.2962 9.7659 71.947Z" fill="#ADADAD" fill-opacity="0.678431"/>
<path d="M78.3117 14.915C78.2632 13.0656 78.2535 12.0551 77.9988 9.77913C77.2395 10.5978 76.4122 11.4844 75.4152 12.3435C75.2223 10.7348 74.8997 9.24052 74.7165 8.24193C73.3956 9.58847 72.8292 10.1676 71.7217 11.2162C71.8855 12.2255 72.0832 13.354 72.1754 14.7792C71.0667 15.5919 69.9836 16.3069 68.9611 16.936C69.1103 18.6806 69.1673 19.616 69.2764 21.1842C69.5287 21.0424 70.9078 20.1391 72.4544 19.1584C72.4762 20.7528 72.5223 22.2447 72.4602 23.5484C72.7853 23.3625 74.6241 22.4211 75.8649 21.1842C76.0432 19.8615 75.9414 18.391 75.8795 16.7895C77.198 15.8886 78.0752 15.2713 78.3117 14.915Z" fill="white"/>
<path d="M78.3111 14.6031C77.9494 15.0153 76.9382 15.7834 75.7196 16.6433C75.8094 18.2113 75.8167 19.7403 75.6771 21.0368C74.5385 22.2722 72.9545 23.1112 72.6534 23.2984C72.685 21.9737 72.6612 20.3934 72.5916 18.7727C71.0282 19.8075 69.7014 20.6515 69.4587 20.7958C69.3603 19.2583 69.3276 18.7067 69.1856 16.998C70.1615 16.3717 71.2442 15.6109 72.3355 14.7853C72.2092 13.3555 72.0526 12.0504 71.873 11.0462C72.8914 9.99794 73.4219 9.4989 74.6345 8.15345C74.836 9.18089 75.0921 10.6805 75.3118 12.3647C76.3351 11.4645 77.2746 10.5618 78.0247 9.72029C77.4275 4.26998 76.1117 0.499041 76.1093 0.488033L75.9381 0L75.6869 0.448892C75.6869 0.449871 75.6068 0.593223 75.449 0.856198C74.4075 2.61018 70.011 9.61877 64.1032 14.0062C66.753 17.8199 68.3092 22.4556 68.3092 27.4546C68.3092 29.03 68.1526 30.5712 67.8576 32.0609C68.6842 31.6279 69.5509 31.1656 70.4613 30.6715C72.2699 29.611 73.7095 28.871 74.8797 27.7494C76.051 26.6302 76.9213 25.138 77.5768 22.6452L77.5788 22.6393L77.5797 22.6305C78.1102 19.969 78.3117 17.3466 78.3117 14.8893C78.3117 14.7927 78.3111 14.6985 78.3111 14.6031ZM24.0661 37.8267C15.9455 42.2961 17.9678 47.5091 24.0066 50.4116C31.1294 53.8376 45.3628 55.5219 52.2174 52.8285C39.5971 53.5147 28.3169 49.0502 24.0661 37.8267Z" fill="#ADADAD"/>
</svg>
