<svg width="161" height="23" viewBox="0 0 161 23" fill="none" xmlns="http://www.w3.org/2000/svg">
<g clip-path="url(#clip0_3107_967)">
<path d="M110.09 22.2884C109.799 22.3118 109.589 22.3415 109.381 22.343C108.519 22.3488 107.657 22.3509 106.795 22.345C106.195 22.3409 106.123 22.2813 106.096 21.6962C106.032 20.3339 105.993 18.9704 105.927 17.6083C105.835 15.7362 105.714 13.8654 105.633 11.9931C105.565 10.4176 105.539 8.84035 105.49 7.26389C105.463 6.41475 105.425 5.56581 105.386 4.57775C105.291 4.79069 105.235 4.88325 105.207 4.98372C104.342 8.1539 103.268 11.258 102.194 14.3625C101.393 16.681 100.617 19.0086 99.8277 21.3313C99.5909 22.0285 99.5866 22.0289 98.8255 22.0308C98.2005 22.0324 97.5746 22.0126 96.9504 22.0352C96.5612 22.0491 96.3795 21.8987 96.2659 21.5288C95.621 19.4292 94.9323 17.3427 94.2977 15.2401C93.5573 12.7907 92.847 10.3325 92.1479 7.8716C91.8853 6.94984 91.6907 6.00959 91.4634 5.07809C91.4445 4.99897 91.417 4.92168 91.3377 4.8442C91.1354 6.75216 91.1285 8.66844 91.0149 10.5783C90.8978 12.5347 90.8186 14.4931 90.711 16.45C90.6051 18.3797 90.4854 20.3087 90.3743 22.2073C89.7949 22.3753 87.534 22.407 86.7101 22.2827C86.5895 21.7536 87.8595 1.91792 88.1195 0.37309C88.3089 0.358236 88.5155 0.328542 88.723 0.32773C90.0799 0.323466 91.4376 0.323059 92.7954 0.326106C93.3782 0.327324 93.3843 0.330573 93.5599 0.885006C94.6611 4.36149 95.7881 7.83046 96.8479 11.3197C97.355 12.991 97.733 14.7008 98.1729 16.3926C98.1919 16.4681 98.2401 16.5364 98.2909 16.6418C99.1355 13.8808 99.9336 11.1566 100.807 8.45627C101.684 5.74128 102.636 3.05026 103.552 0.360267H108.816C109.266 7.66876 109.657 14.9507 110.09 22.2884Z" fill="white"/>
<path d="M18.1533 1.4369C17.8743 2.44569 17.5882 3.48133 17.2885 4.56518C16.8501 4.42302 16.4884 4.29834 16.1222 4.18851C13.9724 3.54336 11.794 3.43617 9.6215 4.00607C7.00858 4.69148 5.31536 6.36433 4.62715 8.95117C4.07522 11.0249 4.15292 13.0988 4.99715 15.0963C5.96391 17.3832 7.74654 18.692 10.1806 19.1586C11.4421 19.4002 12.709 19.3654 13.9728 19.1608C14.1422 19.1334 14.3063 19.0758 14.4744 19.0391C14.8008 18.968 14.928 18.7684 14.9261 18.4417C14.9178 16.9069 14.9217 15.3719 14.9163 13.837C14.9162 13.7354 14.8754 13.6344 14.8368 13.455H11.2092C11.0238 12.9148 11.0065 10.8895 11.1656 10.3284H18.8189C18.838 10.5464 18.8712 10.7511 18.8713 10.9558C18.8744 14.2177 18.8749 17.4796 18.8724 20.7413C18.8719 21.3657 18.8675 21.3735 18.2279 21.5724C15.7819 22.3344 13.2771 22.7088 10.7142 22.5748C9.33755 22.503 7.97246 22.3005 6.66549 21.8215C3.68854 20.7312 1.63746 18.7286 0.678092 15.7248C-0.282492 12.7165 -0.226574 9.70762 1.0333 6.78617C2.25352 3.95706 4.42919 2.10684 7.34898 1.12531C10.6807 0.00525731 14.0357 0.0794994 17.3888 1.05839C17.574 1.11249 17.7524 1.19121 17.9303 1.26686C17.9866 1.29067 18.0308 1.34191 18.1533 1.4369Z" fill="white"/>
<path d="M50.0548 22.3394H46.5551C46.4688 21.6202 46.3858 20.9291 46.2905 20.1367C46.1298 20.3053 46.0147 20.4099 45.9187 20.5292C44.0781 22.8192 41.184 23.0884 39.2106 22.4098C37.459 21.8075 36.4719 20.5229 36.0143 18.831C35.7773 17.9546 35.6391 17.0278 35.624 16.121C35.5757 13.2226 35.6049 10.3227 35.6069 7.42342C35.6071 7.19339 35.6279 6.96316 35.6382 6.75203C36.1298 6.59951 38.6562 6.56188 39.602 6.69042C39.6238 6.93631 39.667 7.20051 39.6676 7.4647C39.6725 10.0443 39.6525 12.6239 39.682 15.2029C39.6898 15.8778 39.7978 16.5608 39.9415 17.2224C40.1805 18.3229 40.7944 19.147 41.9739 19.3718C43.2447 19.6136 44.3097 19.2131 45.1359 18.2171C45.7096 17.5254 45.9279 16.721 45.9271 15.8399C45.9245 13.0472 45.9273 10.2546 45.9282 7.46187V6.78498C46.4044 6.59178 49.1162 6.55192 49.9187 6.72093C49.9316 6.95178 49.9576 7.1999 49.9578 7.44823C49.9602 11.1363 49.9522 14.8243 49.9637 18.5123C49.967 19.5981 50.0236 20.6836 50.0542 21.7695C50.0587 21.9359 50.0548 22.1022 50.0548 22.3394Z" fill="white"/>
<path d="M29.4504 14.692C27.9496 14.656 26.5364 14.7465 25.2311 15.4653C24.4528 15.8939 24.0215 16.5759 23.9868 17.4297C23.9372 18.6435 24.401 19.4425 25.5614 19.7518C27.276 20.2088 29.1614 19.0223 29.4292 17.2801C29.5529 16.4753 29.4504 15.6365 29.4504 14.692ZM29.2978 12.0587C29.5127 10.804 28.8432 9.68487 27.7225 9.31934C26.7086 8.989 25.6858 9.06609 24.6581 9.23654C23.7144 9.39294 22.8381 9.73564 21.933 10.2258C21.5599 9.40581 21.429 8.54407 21.0958 7.70425C21.2478 7.59727 21.3727 7.48581 21.5172 7.41178C23.3884 6.4524 25.4015 6.18048 27.4733 6.27302C28.1348 6.30251 28.8101 6.40115 29.4445 6.58461C31.5188 7.18499 32.7491 8.60013 33.1928 10.6655C33.3573 11.4315 33.4383 12.2261 33.4535 13.0096C33.4901 14.9064 33.4521 16.8046 33.4716 18.7017C33.4823 19.7452 33.5491 20.7877 33.5885 21.8308C33.5943 21.9762 33.5894 22.1223 33.5894 22.3482C32.4204 22.4036 31.269 22.3755 30.055 22.3686C29.9431 21.8158 29.8393 21.3033 29.7187 20.7076C29.5501 20.843 29.4212 20.9364 29.3036 21.0424C27.551 22.622 25.52 23.0974 23.2513 22.4627C20.7438 21.7615 19.6396 19.2616 20.0137 17.1019C20.3163 15.3562 21.2997 14.115 22.8677 13.2996C24.3274 12.5408 25.9094 12.2532 27.5293 12.1247C28.105 12.0791 28.6847 12.0801 29.2978 12.0587Z" fill="white"/>
<path d="M160.715 22.3477C160.189 22.3477 159.764 22.3482 159.339 22.3477C158.823 22.3468 158.305 22.3519 157.789 22.3421C157.168 22.3302 157.139 22.2913 157.1 21.6922C157.067 21.1902 157.019 20.689 156.967 20.0675C156.804 20.2153 156.722 20.2686 156.668 20.3416C155.654 21.7102 154.281 22.4554 152.589 22.6472C151.054 22.8209 149.624 22.55 148.389 21.5888C147.338 20.7724 146.805 19.6322 146.544 18.3763C146.394 17.6511 146.311 16.8997 146.304 16.1592C146.278 13.1975 146.292 10.2353 146.295 7.27346C146.295 7.06661 146.315 6.85976 146.328 6.60411H150.241C150.266 6.85244 150.313 7.11562 150.313 7.37901C150.319 10.0426 150.311 12.7063 150.319 15.3699C150.322 16.2275 150.448 17.068 150.805 17.8611C151.448 19.2901 152.788 19.6766 154.209 19.2536C155.602 18.8386 156.512 17.5833 156.547 16.1234C156.578 14.8456 156.559 13.5664 156.56 12.288C156.561 10.6686 156.56 9.04905 156.56 7.42946V6.6159C156.812 6.59272 156.996 6.56263 157.179 6.56141C158.105 6.55469 159.031 6.5557 159.957 6.55343C160.569 6.55205 160.61 6.58032 160.612 7.20858C160.619 9.27556 160.615 11.3426 160.615 13.4094C160.615 15.3274 160.607 17.2453 160.62 19.1628C160.626 19.907 160.685 20.6506 160.713 21.3948C160.724 21.6686 160.715 21.9431 160.715 22.3477Z" fill="white"/>
<path d="M140.055 16.1157H140.051C140.051 15.7543 140.05 15.393 140.052 15.0317C140.053 14.7408 139.91 14.5972 139.615 14.6133C139.294 14.631 138.971 14.6418 138.652 14.6796C137.8 14.7807 136.946 14.874 136.151 15.24C134.942 15.797 134.399 16.7946 134.618 18.091C134.731 18.7654 135.085 19.2578 135.716 19.5658C137.489 20.4307 139.931 18.9973 140.053 17.0082C140.071 16.7116 140.055 16.4133 140.055 16.1157ZM144.158 22.3479C143.691 22.3479 143.287 22.3487 142.884 22.3479C142.28 22.3466 141.677 22.354 141.075 22.3397C140.621 22.3287 140.565 22.2706 140.492 21.8311C140.432 21.4765 140.385 21.1205 140.322 20.6986C140.177 20.7822 140.078 20.8131 140.016 20.8786C139.029 21.9202 137.798 22.4469 136.384 22.6418C135.51 22.7622 134.667 22.6837 133.834 22.4363C131.68 21.7967 130.324 19.6659 130.561 17.4483C130.795 15.2629 132.019 13.8842 133.976 13.0212C135.644 12.2857 137.417 12.1169 139.206 12.0225C139.417 12.0115 139.627 12.0034 139.821 11.9945C140.14 10.9104 139.526 9.77108 138.438 9.34047C137.699 9.04743 136.926 9.0137 136.15 9.08202C135.049 9.17921 133.984 9.42429 132.997 9.94452C132.848 10.0231 132.684 10.0725 132.471 10.1575C132.327 9.70719 132.19 9.28783 132.06 8.86556C131.936 8.46106 131.82 8.05389 131.695 7.62596C132.404 7.14048 133.174 6.8726 133.958 6.66353C135.423 6.27303 136.916 6.12476 138.432 6.25553C140.15 6.4036 141.665 6.95864 142.755 8.36485C143.43 9.23535 143.764 10.2407 143.907 11.3107C143.978 11.8369 144.007 12.3714 144.011 12.9022C144.024 14.4575 143.998 16.0135 144.022 17.5685C144.042 18.9094 144.111 20.2495 144.157 21.5898C144.164 21.7997 144.158 22.0101 144.158 22.3479Z" fill="white"/>
<path d="M63.9957 2.19085C64.0097 3.6528 64.0232 5.08647 64.0374 6.59355H67.676C67.8568 7.06907 67.889 8.90773 67.741 9.54185C67.5286 9.55343 67.2987 9.57618 67.0685 9.5772C66.2285 9.58112 65.3886 9.57192 64.5487 9.57967C64.0757 9.58393 64.0226 9.62584 64.0212 10.0934C64.0151 12.352 64.0089 14.6109 64.0325 16.8692C64.037 17.3094 64.1275 17.7621 64.2584 18.1847C64.5084 18.992 65.0361 19.3666 65.8866 19.3827C66.3153 19.3909 66.7451 19.3434 67.1745 19.3239C67.2991 19.3184 67.4243 19.3231 67.6313 19.3231C67.659 20.2298 67.6975 21.1164 67.6999 22.0032C67.7003 22.1284 67.5461 22.3385 67.4283 22.367C65.7074 22.7831 63.9872 22.9549 62.3247 22.1394C61.2473 21.611 60.6093 20.7124 60.3725 19.5743C60.2 18.7453 60.0845 17.8913 60.0691 17.0464C60.0275 14.767 60.0537 12.4869 60.0506 10.2069C60.0503 10.0392 60.0316 9.87177 60.021 9.69518C59.569 9.47838 59.1114 9.59679 58.6708 9.58495C57.8145 9.56238 57.813 9.57618 57.8083 8.7417C57.8058 8.27312 57.803 7.80432 57.8099 7.33551C57.8129 7.12847 57.8395 6.92182 57.8594 6.6623C58.6013 6.63322 59.2964 6.60596 60.0539 6.57626C60.0539 5.90569 60.0528 5.31304 60.0543 4.72037C60.0553 4.29427 60.0607 3.86818 60.0629 3.44188C60.0644 3.17626 60.1675 3.00847 60.4533 2.94236C61.501 2.70034 62.5446 2.44082 63.5914 2.1941C63.6898 2.17092 63.7985 2.19085 63.9957 2.19085Z" fill="white"/>
<path d="M125.107 0.178335H129.343C129.367 0.413245 129.407 0.63758 129.407 0.862116C129.41 7.76607 129.41 14.6698 129.408 21.5734C129.408 21.8227 129.373 22.0717 129.352 22.3471H125.198C125.157 22.3091 125.141 22.295 125.126 22.2793C125.113 22.2641 125.093 22.2488 125.088 22.2305C125.073 22.1689 125.053 22.1059 125.053 22.0436C125.051 14.8629 125.051 7.68191 125.053 0.501202C125.053 0.418415 125.08 0.335441 125.107 0.178335Z" fill="white"/>
<path d="M122.877 22.3767H118.75C118.575 21.8574 118.545 0.893158 118.698 0.241959C119.178 0.117702 122.177 0.0934904 122.863 0.208407C123.021 0.673338 123.055 21.567 122.877 22.3767Z" fill="white"/>
<path d="M56.3501 22.3463H52.3613C52.1984 21.8541 52.1542 0.999069 52.3194 0.162301C53.6401 0.131794 54.9777 0.125077 56.3501 0.168408V22.3463Z" fill="white"/>
<path d="M116.395 22.3153C115.001 22.3617 113.724 22.3698 112.35 22.3153C112.344 17.0574 112.352 11.8724 112.347 6.6476C112.511 6.61344 112.65 6.56056 112.789 6.55953C113.822 6.55141 114.855 6.54977 115.888 6.55406C116.315 6.55588 116.365 6.60875 116.392 7.0255C116.401 7.17396 116.395 7.32347 116.395 7.47255C116.395 12.1362 116.395 16.7998 116.395 21.4633V22.3153Z" fill="white"/>
<path d="M74.861 12.1773C73.6609 12.9506 73.2689 14.1205 73.1322 15.4108C72.9873 16.7763 72.9856 18.1386 73.4747 19.4513C73.9082 20.6154 74.619 21.5431 75.8275 22.0214C75.98 22.0818 76.1167 22.1809 76.2446 22.2982C75.0819 22.1625 73.9577 21.9226 72.9027 21.4053C70.1347 20.0482 69.7388 16.9289 70.5805 14.8834C70.8226 14.2952 71.2381 13.8276 71.7334 13.4444C72.646 12.7377 73.7151 12.3768 74.861 12.1773Z" fill="white"/>
<path d="M76.4171 2.95232C76.3807 3.06032 76.3786 3.09245 76.3674 3.09592C74.8372 3.57591 74.1828 4.74456 73.9406 6.19471C73.7501 7.33531 73.7785 8.48891 73.9302 9.63521C74.0143 10.2689 74.2634 10.8229 74.8075 11.2133C74.8719 11.2594 74.9163 11.333 75.0581 11.4944C73.8128 11.1397 72.7461 10.7321 71.9063 9.88233C70.4241 8.38274 70.6657 5.47248 72.6617 4.16857C73.2095 3.81082 73.8418 3.5515 74.4692 3.34853C75.0739 3.15265 75.7221 3.08779 76.4171 2.95232Z" fill="white"/>
<path d="M78.9176 22.3424C79.0074 22.2335 79.0272 22.1863 79.0609 22.1725C80.3775 21.6311 80.9442 20.5414 81.2002 19.2519C81.4436 18.0263 81.3899 16.793 81.1907 15.5632C81.0698 14.8173 80.6706 14.2691 80.0106 13.8817C81.0341 14.1274 82.0033 14.4709 82.8445 15.114C84.8632 16.6567 84.498 19.8551 82.5225 21.1948C81.703 21.7505 80.7855 22.0306 79.8291 22.2172C79.557 22.2704 79.279 22.2937 78.9176 22.3424Z" fill="white"/>
<path d="M75.5312 14.9259C75.2848 14.0688 75.4541 13.3893 75.9796 12.7901C76.4998 12.1968 77.1673 11.8053 77.8974 11.5303C78.8017 11.1898 79.7217 10.8909 80.6326 10.5673C81.4417 10.2797 82.2609 10.0135 83.0513 9.68095C83.7238 9.3978 84.3825 9.0574 84.6588 8.13644C84.7527 8.38517 84.8191 8.48423 84.8238 8.58615C84.8616 9.36977 84.6131 10.0358 84.0402 10.6029C83.2527 11.3824 82.2662 11.793 81.2512 12.1519C80.0164 12.5883 78.7604 12.9681 77.5338 13.4255C77.0392 13.61 76.5787 13.9075 76.1409 14.2081C75.9128 14.3649 75.7672 14.6399 75.5312 14.9259Z" fill="white"/>
<path d="M114.4 0.000178551C115.732 0.0146115 116.647 0.920494 116.637 2.21709C116.629 3.47136 115.654 4.35975 114.307 4.34084C113.021 4.32294 112.077 3.39387 112.094 2.16054C112.109 0.894462 113.08 -0.014067 114.4 0.000178551Z" fill="white"/>
<path d="M78.4678 2.97489C79.0216 3.19007 79.5984 3.36194 80.1243 3.63081C80.9062 4.03047 81.437 4.65894 81.5693 5.55342C81.6577 6.14793 81.3985 6.68935 80.9101 6.97347C80.3914 7.2753 79.5922 7.23116 79.1476 6.83782C78.6929 6.43532 78.5248 5.92379 78.7213 5.3354C78.8012 5.09539 78.9178 4.86436 79.0403 4.64144C79.3771 4.02986 79.3291 3.77035 78.7702 3.33103C78.6565 3.24154 78.5373 3.15896 78.4208 3.07312C78.4364 3.04039 78.4522 3.00765 78.4678 2.97489Z" fill="white"/>
</g>
<defs>
<clipPath id="clip0_3107_967">
<rect width="161" height="23" fill="white"/>
</clipPath>
</defs>
</svg>
