<svg width="114" height="28" viewBox="0 0 114 28" fill="none" xmlns="http://www.w3.org/2000/svg">
<path d="M1.75781 4.82031H8.625C9.98438 4.82031 10.9961 4.87891 11.6602 4.99609C12.332 5.10547 12.9297 5.33984 13.4531 5.69922C13.9844 6.05859 14.4258 6.53906 14.7773 7.14062C15.1289 7.73438 15.3047 8.40234 15.3047 9.14453C15.3047 9.94922 15.0859 10.6875 14.6484 11.3594C14.2188 12.0312 13.6328 12.5352 12.8906 12.8711C13.9375 13.1758 14.7422 13.6953 15.3047 14.4297C15.8672 15.1641 16.1484 16.0273 16.1484 17.0195C16.1484 17.8008 15.9648 18.5625 15.5977 19.3047C15.2383 20.0391 14.7422 20.6289 14.1094 21.0742C13.4844 21.5117 12.7109 21.7812 11.7891 21.8828C11.2109 21.9453 9.81641 21.9844 7.60547 22H1.75781V4.82031ZM5.22656 7.67969V11.6523H7.5C8.85156 11.6523 9.69141 11.6328 10.0195 11.5938C10.6133 11.5234 11.0781 11.3203 11.4141 10.9844C11.7578 10.6406 11.9297 10.1914 11.9297 9.63672C11.9297 9.10547 11.7812 8.67578 11.4844 8.34766C11.1953 8.01172 10.7617 7.80859 10.1836 7.73828C9.83984 7.69922 8.85156 7.67969 7.21875 7.67969H5.22656ZM5.22656 14.5117V19.1055H8.4375C9.6875 19.1055 10.4805 19.0703 10.8164 19C11.332 18.9062 11.75 18.6797 12.0703 18.3203C12.3984 17.9531 12.5625 17.4648 12.5625 16.8555C12.5625 16.3398 12.4375 15.9023 12.1875 15.543C11.9375 15.1836 11.5742 14.9219 11.0977 14.7578C10.6289 14.5938 9.60547 14.5117 8.02734 14.5117H5.22656ZM19.1016 22V4.82031H26.4023C28.2383 4.82031 29.5703 4.97656 30.3984 5.28906C31.2344 5.59375 31.9023 6.14063 32.4023 6.92969C32.9023 7.71875 33.1523 8.62109 33.1523 9.63672C33.1523 10.9258 32.7734 11.9922 32.0156 12.8359C31.2578 13.6719 30.125 14.1992 28.6172 14.418C29.3672 14.8555 29.9844 15.3359 30.4688 15.8594C30.9609 16.3828 31.6211 17.3125 32.4492 18.6484L34.5469 22H30.3984L27.8906 18.2617C27 16.9258 26.3906 16.0859 26.0625 15.7422C25.7344 15.3906 25.3867 15.1523 25.0195 15.0273C24.6523 14.8945 24.0703 14.8281 23.2734 14.8281H22.5703V22H19.1016ZM22.5703 12.0859H25.1367C26.8008 12.0859 27.8398 12.0156 28.2539 11.875C28.668 11.7344 28.9922 11.4922 29.2266 11.1484C29.4609 10.8047 29.5781 10.375 29.5781 9.85938C29.5781 9.28125 29.4219 8.81641 29.1094 8.46484C28.8047 8.10547 28.3711 7.87891 27.8086 7.78516C27.5273 7.74609 26.6836 7.72656 25.2773 7.72656H22.5703V12.0859ZM51.9258 22H48.1523L46.6523 18.0977H39.7852L38.3672 22H34.6875L41.3789 4.82031H45.0469L51.9258 22ZM45.5391 15.2031L43.1719 8.82812L40.8516 15.2031H45.5391ZM53.7305 22V4.82031H58.9219L62.0391 16.5391L65.1211 4.82031H70.3242V22H67.1016V8.47656L63.6914 22H60.3516L56.9531 8.47656V22H53.7305ZM73.0664 13.5156C73.0664 11.7656 73.3281 10.2969 73.8516 9.10938C74.2422 8.23438 74.7734 7.44922 75.4453 6.75391C76.125 6.05859 76.8672 5.54297 77.6719 5.20703C78.7422 4.75391 79.9766 4.52734 81.375 4.52734C83.9062 4.52734 85.9297 5.3125 87.4453 6.88281C88.9688 8.45312 89.7305 10.6367 89.7305 13.4336C89.7305 16.207 88.9766 18.3789 87.4688 19.9492C85.9609 21.5117 83.9453 22.293 81.4219 22.293C78.8672 22.293 76.8359 21.5156 75.3281 19.9609C73.8203 18.3984 73.0664 16.25 73.0664 13.5156ZM76.6406 13.3984C76.6406 15.3438 77.0898 16.8203 77.9883 17.8281C78.8867 18.8281 80.0273 19.3281 81.4102 19.3281C82.793 19.3281 83.9258 18.832 84.8086 17.8398C85.6992 16.8398 86.1445 15.3438 86.1445 13.3516C86.1445 11.3828 85.7109 9.91406 84.8438 8.94531C83.9844 7.97656 82.8398 7.49219 81.4102 7.49219C79.9805 7.49219 78.8281 7.98438 77.9531 8.96875C77.0781 9.94531 76.6406 11.4219 76.6406 13.3984ZM92.3438 22V4.82031H95.8125V22H92.3438ZM98.25 16.4102L101.625 16.082C101.828 17.2148 102.238 18.0469 102.855 18.5781C103.48 19.1094 104.32 19.375 105.375 19.375C106.492 19.375 107.332 19.1406 107.895 18.6719C108.465 18.1953 108.75 17.6406 108.75 17.0078C108.75 16.6016 108.629 16.2578 108.387 15.9766C108.152 15.6875 107.738 15.4375 107.145 15.2266C106.738 15.0859 105.812 14.8359 104.367 14.4766C102.508 14.0156 101.203 13.4492 100.453 12.7773C99.3984 11.832 98.8711 10.6797 98.8711 9.32031C98.8711 8.44531 99.1172 7.62891 99.6094 6.87109C100.109 6.10547 100.824 5.52344 101.754 5.125C102.691 4.72656 103.82 4.52734 105.141 4.52734C107.297 4.52734 108.918 5 110.004 5.94531C111.098 6.89063 111.672 8.15234 111.727 9.73047L108.258 9.88281C108.109 9 107.789 8.36719 107.297 7.98438C106.812 7.59375 106.082 7.39844 105.105 7.39844C104.098 7.39844 103.309 7.60547 102.738 8.01953C102.371 8.28516 102.188 8.64062 102.188 9.08594C102.188 9.49219 102.359 9.83984 102.703 10.1289C103.141 10.4961 104.203 10.8789 105.891 11.2773C107.578 11.6758 108.824 12.0898 109.629 12.5195C110.441 12.9414 111.074 13.5234 111.527 14.2656C111.988 15 112.219 15.9102 112.219 16.9961C112.219 17.9805 111.945 18.9023 111.398 19.7617C110.852 20.6211 110.078 21.2617 109.078 21.6836C108.078 22.0977 106.832 22.3047 105.34 22.3047C103.168 22.3047 101.5 21.8047 100.336 20.8047C99.1719 19.7969 98.4766 18.332 98.25 16.4102Z" fill="#F3F3F2"/>
<circle cx="81.5" cy="13.5" r="2.5" fill="#EA0808"/>
</svg>
